<svg width="171" height="24" viewBox="0 0 171 24" fill="none" xmlns="http://www.w3.org/2000/svg">
<g id="Logo">
<g id="Vector">
<path id="Vector_2" d="M27.5002 24C26.2006 24 25.3999 23.4 24.0917 22.6934C22.7835 21.9867 18.9999 19.1416 18.9999 15.6C18.9999 13.1975 18.3806 11.2543 17.3259 9.70568C16.279 8.16896 14.8608 7.10428 13.3855 6.35272C12.6745 5.99064 11.9347 5.69452 11.198 5.4498C10.7685 5.30724 10.5192 4.84608 10.7056 4.4338C11.8866 1.81916 14.5169 0 17.5724 0C21.7316 0 25.1034 3.37168 25.1034 7.53104C25.1034 8.42088 24.9491 9.2748 24.6657 10.0672C25.8662 9.2582 27.3126 8.78612 28.869 8.78612C33.0282 8.78612 36.3998 12.1578 36.3998 16.3172C36.3998 21.3244 31.9998 24 27.5002 24Z" fill="#8FB2F5"/>
<path id="Vector_3" d="M0 15.6896C0 19.6593 2.6172 22.967 6.08436 23.6978C6.61952 23.8933 7.19728 24 7.8 24H19.501C19.8934 24 20.0642 23.4752 19.7646 23.2216C17.7197 21.4914 16.2 19.0529 16.2 15.6C16.2 13.7027 15.7195 12.3208 15.0117 11.282C14.2959 10.2312 13.2891 9.44585 12.1146 8.84745C10.9293 8.24373 9.6424 7.85913 8.41348 7.58649C8.12404 7.54997 7.82948 7.53101 7.53104 7.53101C3.37168 7.53101 0 11.1838 0 15.6896Z" fill="#8FB2F5"/>
</g>
<g id="Type">
<g id="Type Weather">
<path d="M95.6414 18.6241L91.5998 4.80005H94.0286L96.7838 14.784L99.5294 4.81925L101.958 4.80005L104.713 14.784L107.459 4.80005H109.888L105.856 18.6241H103.571L100.739 8.79365L97.9262 18.6241H95.6414Z" fill="#FAFAFA"/>
<path d="M115.024 18.912C113.974 18.912 113.053 18.6849 112.259 18.2305C111.466 17.7761 110.845 17.1457 110.397 16.3393C109.955 15.5329 109.734 14.6049 109.734 13.5553C109.734 12.4225 109.952 11.44 110.387 10.608C110.822 9.76965 111.427 9.12005 112.202 8.65925C112.976 8.19845 113.872 7.96805 114.89 7.96805C115.965 7.96805 116.877 8.22085 117.626 8.72645C118.381 9.22565 118.941 9.93285 119.306 10.8481C119.67 11.7633 119.808 12.8416 119.718 14.0832H117.424V13.2384C117.418 12.112 117.219 11.2896 116.829 10.7712C116.438 10.2528 115.824 9.99365 114.986 9.99365C114.038 9.99365 113.334 10.288 112.874 10.8768C112.413 11.4592 112.182 12.3137 112.182 13.4401C112.182 14.4896 112.413 15.3024 112.874 15.8784C113.334 16.4544 114.006 16.7424 114.89 16.7424C115.459 16.7424 115.949 16.6176 116.358 16.368C116.774 16.112 117.094 15.7441 117.318 15.2641L119.603 15.9552C119.206 16.8896 118.592 17.616 117.76 18.1344C116.934 18.6528 116.022 18.912 115.024 18.912ZM111.453 14.0832V12.3361H118.586V14.0832H111.453Z" fill="#FAFAFA"/>
<path d="M124.572 18.912C123.823 18.912 123.19 18.7713 122.671 18.4897C122.153 18.2017 121.759 17.8209 121.491 17.3473C121.228 16.8737 121.097 16.352 121.097 15.7824C121.097 15.2832 121.18 14.8352 121.347 14.4384C121.513 14.0352 121.769 13.6896 122.115 13.4016C122.46 13.1072 122.908 12.8673 123.459 12.6817C123.875 12.5472 124.361 12.4256 124.918 12.3168C125.481 12.208 126.089 12.1089 126.742 12.0192C127.401 11.9233 128.089 11.8208 128.806 11.712L127.98 12.1824C127.987 11.4656 127.827 10.9376 127.5 10.5984C127.174 10.2592 126.623 10.0897 125.849 10.0897C125.382 10.0897 124.931 10.1984 124.495 10.416C124.06 10.6336 123.756 11.0081 123.583 11.5393L121.471 10.8768C121.727 10 122.214 9.29605 122.931 8.76485C123.654 8.23365 124.627 7.96805 125.849 7.96805C126.771 7.96805 127.58 8.11845 128.278 8.41925C128.982 8.72005 129.503 9.21285 129.843 9.89765C130.028 10.2625 130.14 10.6368 130.179 11.0208C130.217 11.3984 130.236 11.8112 130.236 12.2592V18.6241H128.211V16.3777L128.547 16.7424C128.079 17.4912 127.532 18.0417 126.905 18.3937C126.284 18.7393 125.507 18.912 124.572 18.912ZM125.033 17.0689C125.558 17.0689 126.006 16.9761 126.377 16.7905C126.748 16.6048 127.043 16.3776 127.26 16.1088C127.484 15.84 127.635 15.5872 127.711 15.3504C127.833 15.056 127.9 14.72 127.913 14.3424C127.932 13.9584 127.942 13.6481 127.942 13.4113L128.652 13.6225C127.955 13.7313 127.356 13.8273 126.857 13.9104C126.358 13.9937 125.929 14.0736 125.571 14.1504C125.212 14.2208 124.895 14.3008 124.62 14.3904C124.351 14.4865 124.124 14.5984 123.939 14.7264C123.753 14.8544 123.609 15.0016 123.507 15.168C123.411 15.3344 123.363 15.5296 123.363 15.7536C123.363 16.0096 123.427 16.2369 123.555 16.4353C123.683 16.6273 123.868 16.7808 124.111 16.896C124.361 17.0112 124.668 17.0689 125.033 17.0689Z" fill="#FAFAFA"/>
<path d="M138.812 18.6241C138.127 18.7521 137.455 18.8064 136.796 18.7872C136.143 18.7744 135.558 18.656 135.039 18.432C134.521 18.2016 134.127 17.8401 133.859 17.3473C133.622 16.8993 133.497 16.4416 133.484 15.9744C133.471 15.5072 133.465 14.9792 133.465 14.3904V5.37605H135.769V14.2561C135.769 14.6721 135.772 15.0368 135.779 15.3504C135.791 15.664 135.859 15.9201 135.98 16.1185C136.211 16.5025 136.579 16.7168 137.084 16.7617C137.59 16.8064 138.166 16.7809 138.812 16.6849V18.6241ZM131.583 10.0704V8.25605H138.812V10.0704H131.583Z" fill="#FAFAFA"/>
<path d="M148.213 18.6241V13.632C148.213 13.3056 148.191 12.9441 148.146 12.5473C148.101 12.1505 147.995 11.7696 147.829 11.4048C147.669 11.0336 147.426 10.7296 147.099 10.4928C146.779 10.256 146.344 10.1376 145.794 10.1376C145.499 10.1376 145.208 10.1856 144.92 10.2817C144.632 10.3776 144.37 10.5441 144.133 10.7809C143.903 11.0113 143.717 11.3312 143.576 11.7408C143.435 12.144 143.365 12.6624 143.365 13.296L141.992 12.7104C141.992 11.8272 142.162 11.0272 142.501 10.3104C142.847 9.59365 143.352 9.02405 144.018 8.60165C144.683 8.17285 145.503 7.95845 146.475 7.95845C147.243 7.95845 147.877 8.08645 148.376 8.34245C148.875 8.59845 149.272 8.92485 149.567 9.32165C149.861 9.71845 150.079 10.1409 150.219 10.5889C150.36 11.0369 150.45 11.4625 150.488 11.8656C150.533 12.2624 150.555 12.5856 150.555 12.8352V18.6241H148.213ZM141.023 18.6241V4.80005H143.087V12.0768H143.365V18.6241H141.023Z" fill="#FAFAFA"/>
<path d="M157.774 18.912C156.724 18.912 155.803 18.6849 155.009 18.2305C154.216 17.7761 153.595 17.1457 153.147 16.3393C152.705 15.5329 152.484 14.6049 152.484 13.5553C152.484 12.4225 152.702 11.44 153.137 10.608C153.572 9.76965 154.177 9.12005 154.952 8.65925C155.726 8.19845 156.622 7.96805 157.64 7.96805C158.715 7.96805 159.627 8.22085 160.376 8.72645C161.131 9.22565 161.691 9.93285 162.056 10.8481C162.42 11.7633 162.558 12.8416 162.468 14.0832H160.174V13.2384C160.168 12.112 159.969 11.2896 159.579 10.7712C159.188 10.2528 158.574 9.99365 157.736 9.99365C156.788 9.99365 156.084 10.288 155.624 10.8768C155.163 11.4592 154.932 12.3137 154.932 13.4401C154.932 14.4896 155.163 15.3024 155.624 15.8784C156.084 16.4544 156.756 16.7424 157.64 16.7424C158.209 16.7424 158.699 16.6176 159.108 16.368C159.524 16.112 159.844 15.7441 160.068 15.2641L162.353 15.9552C161.956 16.8896 161.342 17.616 160.51 18.1344C159.684 18.6528 158.772 18.912 157.774 18.912ZM154.203 14.0832V12.3361H161.336V14.0832H154.203Z" fill="#FAFAFA"/>
<path d="M164.61 18.6241V8.25605H166.655V10.7809L166.406 10.4544C166.534 10.1088 166.703 9.79525 166.914 9.51365C167.132 9.22565 167.391 8.98885 167.692 8.80325C167.948 8.63045 168.23 8.49605 168.537 8.40005C168.85 8.29765 169.17 8.23685 169.497 8.21765C169.823 8.19205 170.14 8.20485 170.447 8.25605V10.416C170.14 10.3264 169.785 10.2976 169.382 10.3296C168.985 10.3616 168.626 10.4736 168.306 10.6656C167.986 10.8384 167.724 11.0592 167.519 11.328C167.321 11.5968 167.174 11.904 167.078 12.2496C166.982 12.5888 166.934 12.9569 166.934 13.3536V18.6241H164.61Z" fill="#FAFAFA"/>
</g>
<g id="Type Weather_2">
<path d="M50.4733 18.624V6.96965H45.9997V4.80005H57.2605V6.96965H52.7869V18.624H50.4733Z" fill="#FAFAFA"/>
<path d="M58.8086 23.232L60.8054 17.7504L60.8438 19.3632L56.3222 8.25605H58.7318L61.9382 16.4736H61.3238L64.4438 8.25605H66.7574L60.9782 23.232H58.8086Z" fill="#FAFAFA"/>
<path d="M73.1716 18.912C72.1604 18.912 71.3124 18.672 70.6276 18.192C69.9428 17.712 69.4276 17.0592 69.082 16.2336C68.7364 15.4016 68.5636 14.4704 68.5636 13.44C68.5636 12.3968 68.7364 11.4624 69.082 10.6368C69.4276 9.81125 69.9332 9.16165 70.5988 8.68805C71.2708 8.20805 72.0996 7.96805 73.0852 7.96805C74.0644 7.96805 74.9124 8.20805 75.6292 8.68805C76.3524 9.16165 76.9124 9.81125 77.3092 10.6368C77.706 11.456 77.9044 12.3904 77.9044 13.44C77.9044 14.4768 77.7092 15.408 77.3188 16.2336C76.9284 17.0592 76.378 17.712 75.6676 18.192C74.9572 18.672 74.1252 18.912 73.1716 18.912ZM68.17 23.232V8.25605H70.2148V15.5328H70.5028V23.232H68.17ZM72.8164 16.8384C73.418 16.8384 73.914 16.688 74.3044 16.3872C74.6948 16.0864 74.9828 15.68 75.1684 15.168C75.3604 14.6496 75.4564 14.0736 75.4564 13.44C75.4564 12.8128 75.3604 12.2432 75.1684 11.7312C74.9764 11.2128 74.6788 10.8032 74.2756 10.5024C73.8724 10.1952 73.3604 10.0416 72.7396 10.0416C72.1508 10.0416 71.6708 10.1856 71.2996 10.4736C70.9284 10.7552 70.6532 11.152 70.474 11.664C70.3012 12.1696 70.2148 12.7616 70.2148 13.44C70.2148 14.112 70.3012 14.704 70.474 15.216C70.6532 15.728 70.9316 16.128 71.3092 16.416C71.6932 16.6976 72.1956 16.8384 72.8164 16.8384Z" fill="#FAFAFA"/>
<path d="M84.734 18.912C83.6844 18.912 82.7628 18.6848 81.9692 18.2304C81.1756 17.776 80.5548 17.1456 80.1068 16.3392C79.6652 15.5328 79.4444 14.6048 79.4444 13.5552C79.4444 12.4224 79.662 11.44 80.0972 10.608C80.5324 9.76965 81.1372 9.12005 81.9116 8.65925C82.686 8.19845 83.582 7.96805 84.5996 7.96805C85.6748 7.96805 86.5868 8.22085 87.3356 8.72645C88.0908 9.22565 88.6508 9.93285 89.0156 10.848C89.3804 11.7632 89.518 12.8416 89.4284 14.0832H87.134V13.2384C87.1276 12.112 86.9292 11.2896 86.5388 10.7712C86.1484 10.2528 85.534 9.99365 84.6956 9.99365C83.7484 9.99365 83.0444 10.288 82.5836 10.8768C82.1228 11.4592 81.8924 12.3136 81.8924 13.44C81.8924 14.4896 82.1228 15.3024 82.5836 15.8784C83.0444 16.4544 83.7164 16.7424 84.5996 16.7424C85.1692 16.7424 85.6588 16.6176 86.0684 16.368C86.4844 16.112 86.8044 15.744 87.0284 15.264L89.3132 15.9552C88.9164 16.8896 88.302 17.616 87.47 18.1344C86.6444 18.6528 85.7324 18.912 84.734 18.912ZM81.1628 14.0832V12.336H88.2956V14.0832H81.1628Z" fill="#FAFAFA"/>
</g>
</g>
</g>
</svg>
